<svg id="_x31_-outline-expand" enable-background="new 0 0 64 64" height="512" viewBox="0 0 64 64" width="512" xmlns="http://www.w3.org/2000/svg"><path d="m26 31c2.39 0 4.54-1.05 6-2.71 1.46 1.66 3.61 2.71 6 2.71v-4c-2.209 0-4-1.791-4-4v-21h-4v21c0 2.209-1.791 4-4 4z" fill="#efbc2e"/><path d="m26 34.7v-20.42c0-1.26-1.02-2.28-2.28-2.28-.47 0-.93.14-1.31.41-6.32 4.43-11.32 10.32-14.66 17.04-1.43 2.87-2.55 5.9-3.34 9.03-.93 3.62-1.41 7.38-1.41 11.21v9.03c0 1.26 1.02 2.28 2.28 2.28h.13c.39 0 .77-.1 1.1-.28l7.98-4.39 9.44-5.19c1.28-.7 2.07-2.05 2.07-3.51z" fill="#f2daae"/><path d="m40.46 51.36-.39-.22c-1.28-.7-2.07-2.05-2.07-3.51v-33.35c0-1.26 1.02-2.28 2.28-2.28.47 0 .93.14 1.31.41 7.42 5.2 13.01 12.4 16.24 20.61 2.07 5.23 3.17 10.88 3.17 16.67v9.03c0 1.26-1.019 2.28-2.28 2.28h-.13c-.39 0-.77-.1-1.1-.28z" fill="#f2daae"/><path d="m26 14.28v20.42c-1.84.84-3.87 1.3-6 1.3-5.06 0-9.53-2.59-12.25-6.55 3.34-6.72 8.34-12.61 14.66-17.04.38-.27.84-.41 1.31-.41 1.26 0 2.28 1.02 2.28 2.28" fill="#aa494a"/><path d="m26 34.7v12.93c0 1.46-.79 2.81-2.07 3.51l-9.44 5.19c-4.56-3.41-8.2-9.84-10.08-17.85.79-3.13 1.91-6.16 3.34-9.03 2.72 3.96 7.19 6.55 12.25 6.55 2.13 0 4.16-.46 6-1.3" fill="#d36767"/><path d="m14.49 56.33-7.98 4.39c-.331.18-.71.28-1.1.28h-.13c-1.261 0-2.28-1.02-2.28-2.28v-9.03c0-3.83.48-7.59 1.41-11.21 1.88 8.01 5.519 14.44 10.08 17.85" fill="#aa494a"/><path d="m61 49.69v9.03c0 1.26-1.02 2.28-2.28 2.28h-.13c-.39 0-.77-.1-1.1-.28l-17.03-9.36c8.34-2.98 14.83-9.8 17.37-18.34 2.07 5.23 3.17 10.88 3.17 16.67" fill="#d36767"/><path d="m41.59 12.41c7.42 5.2 13.01 12.4 16.24 20.61-2.54 8.54-9.03 15.36-17.37 18.34l-.39-.22c-1.28-.7-2.07-2.05-2.07-3.51v-33.35c0-1.26 1.02-2.28 2.28-2.28.47 0 .93.14 1.31.41" fill="#aa494a"/><path d="m48 3h13l-5 7h3l-11 11 2-10h-3z" fill="#ef941d"/><g fill="#3a4249"><path d="m20.69 9.955-1.146-1.639c-4.028 2.819-7.615 6.205-10.663 10.065l1.571 1.239c2.926-3.707 6.371-6.958 10.238-9.665"/><path d="m58.761 32.654c-1.885-4.793-4.54-9.198-7.882-13.119l8.828-8.828c.286-.286.372-.716.217-1.09-.154-.374-.52-.617-.924-.617h-1.057l3.87-5.419c.218-.305.248-.706.077-1.039-.172-.333-.515-.542-.89-.542h-13c-.504 0-.93.375-.992.876l-1 8c-.036.284.053.571.242.785.19.216.463.339.75.339h1.78l-.872 4.358c-1.782-1.737-3.704-3.339-5.739-4.763-.548-.39-1.2-.595-1.889-.595-1.808 0-3.28 1.471-3.28 3.28v11.535c-1.161-.414-2-1.513-2-2.815v-21h-2v21c0 2.414 1.721 4.434 4 4.899v2.02c-1.635-.236-3.147-1.036-4.249-2.289-.379-.433-1.123-.433-1.502 0-1.102 1.253-2.614 2.053-4.249 2.289v-2.02c2.279-.465 4-2.485 4-4.899v-21h-2v21c0 1.302-.839 2.401-2 2.816v-11.536c0-1.809-1.472-3.28-3.28-3.28-.689 0-1.341.205-1.884.591-6.352 4.452-11.532 10.473-14.982 17.413-1.458 2.927-2.606 6.033-3.413 9.227-.956 3.725-1.441 7.58-1.441 11.459v9.03c0 1.808 1.472 3.28 3.28 3.28h.13c.551 0 1.097-.139 1.582-.405l17.417-9.578c1.599-.874 2.591-2.555 2.591-4.387v-15.692c1.859-.208 3.608-.985 5-2.23 1.392 1.245 3.141 2.022 5 2.23v15.692c0 1.832.992 3.513 2.579 4.381l17.433 9.587c.482.263 1.028.402 1.578.402h.13c1.808 0 3.28-1.471 3.28-3.28v-9.03c0-5.875-1.09-11.607-3.239-17.036m-35.772-19.429c.205-.145.464-.225.731-.225.706 0 1.28.574 1.28 1.28v19.74c-1.59.639-3.266.98-5 .98-4.331 0-8.413-2.112-11.063-5.649 3.298-6.41 8.137-11.98 14.052-16.126m-16.959 46.617c-.189.103-.403.158-.62.158h-.13c-.706 0-1.28-.574-1.28-1.28v-9.03c0-2.337.205-4.66.57-6.954 1.887 5.74 4.698 10.382 8.147 13.428zm17.418-9.579-8.854 4.87c-4.081-3.317-7.391-9.323-9.15-16.639.634-2.452 1.483-4.839 2.52-7.132 3.025 3.555 7.411 5.638 12.036 5.638 1.723 0 3.397-.284 5-.833v11.463c0 1.101-.594 2.11-1.552 2.633m24.685-40.263.75-6h10.174l-3.87 5.419c-.218.304-.248.705-.077 1.038.172.333.515.543.89.543h.586l-6.958 6.957 1.352-6.761c.059-.294-.017-.599-.207-.83-.19-.232-.473-.366-.773-.366zm-9.133 37.63v-33.35c0-.706.574-1.28 1.28-1.28.267 0 .526.08.737.229 2.309 1.616 4.462 3.466 6.42 5.49l-.417 2.084c-.087.433.12.871.508 1.079.149.079.311.118.472.118.259 0 .515-.101.707-.293l.753-.753c3.072 3.631 5.527 7.695 7.304 12.107-2.462 7.901-8.485 14.281-16.225 17.194-.949-.525-1.539-1.529-1.539-2.625m21 11.09c0 .706-.574 1.28-1.28 1.28h-.13c-.217 0-.432-.055-.618-.156l-15.188-8.348c6.813-3.027 12.223-8.612 15.044-15.5 1.436 4.411 2.172 9.004 2.172 13.694z"/></g></svg>