<?xml version="1.0" encoding="iso-8859-1"?>
<!-- Generator: Adobe Illustrator 19.0.0, SVG Export Plug-In . SVG Version: 6.00 Build 0)  -->
<svg version="1.1" id="Capa_1" xmlns="http://www.w3.org/2000/svg" xmlns:xlink="http://www.w3.org/1999/xlink" x="0px" y="0px"
	 viewBox="0 0 512 512" style="enable-background:new 0 0 512 512;" xml:space="preserve">
<path style="fill:#FFD2C0;" d="M472.861,472.861L472.861,472.861c42.186-42.186,42.186-110.582,0-152.768L191.907,39.139
	c-42.186-42.186-110.582-42.186-152.768,0l0,0c-42.186,42.186-42.186,110.582,0,152.768L320.092,472.86
	C362.278,515.046,430.675,515.046,472.861,472.861z"/>
<rect x="165.336" y="165.337" transform="matrix(0.7071 0.7071 -0.7071 0.7071 273.361 -113.229)" style="fill:#EAA28F;" width="216.048" height="216.048"/>
<path style="fill:#FFD2C0;" d="M39.139,472.861L39.139,472.861c-42.186-42.186-42.186-110.582,0-152.768L320.093,39.139
	c42.186-42.186,110.582-42.186,152.768,0l0,0c42.186,42.186,42.186,110.582,0,152.768L191.907,472.861
	C149.722,515.046,81.325,515.046,39.139,472.861z"/>
<path style="fill:#F0B7A6;" d="M475.792,42.222c29.3,32.43,28.323,82.496-2.931,113.75L155.973,472.861
	c-31.254,31.254-81.321,32.231-113.751,2.93c42.371,39.209,108.508,38.247,149.685-2.93L472.86,191.908
	C514.038,150.73,515,84.594,475.792,42.222z"/>
<path style="fill:#EAA28F;" d="M251.737,179.269l-72.468,72.468c-6.71,6.71-6.71,17.588,0,24.298l56.696,56.695
	c6.71,6.71,17.588,6.71,24.298,0l72.468-72.468c6.71-6.71,6.71-17.588,0-24.298l-56.695-56.696
	C269.325,172.56,258.447,172.56,251.737,179.269z"/>
<path d="M435.244,271.866c-2.93-2.928-7.678-2.928-10.607,0c-2.929,2.93-2.929,7.678,0,10.607l42.922,42.921
	C486.544,344.371,497,369.617,497,396.48c0,26.847-10.456,52.089-29.443,71.076c-19.6,19.6-45.336,29.398-71.082,29.395
	c-25.738-0.002-51.486-9.801-71.081-29.395l-58.787-58.788L478.165,197.21C499.983,175.392,512,146.381,512,115.523
	c0-30.857-12.017-59.868-33.836-81.688C456.345,12.017,427.334,0,396.477,0s-59.868,12.017-81.688,33.836l-58.788,58.788
	l-58.787-58.788C152.169-11.206,78.879-11.205,33.836,33.837C12.017,55.657,0,84.666,0,115.52c0,30.871,12.018,59.885,33.837,81.694
	l42.96,42.95c1.465,1.464,3.384,2.196,5.303,2.196c1.92,0,3.84-0.732,5.304-2.197c2.929-2.93,2.929-7.678-0.001-10.607
	l-42.961-42.951C25.456,167.629,15,142.383,15,115.52c0-26.847,10.456-52.089,29.443-71.076c39.193-39.193,102.968-39.195,142.163,0
	l58.787,58.788L33.836,314.789C12.017,336.608,0,365.619,0,396.477c0,30.857,12.017,59.868,33.836,81.688
	C55.655,499.983,84.666,512,115.523,512c30.858,0,59.868-12.017,81.688-33.836l58.788-58.788l58.787,58.788
	c22.522,22.521,52.105,33.781,81.689,33.781s59.168-11.261,81.689-33.782C499.983,456.343,512,427.334,512,396.48
	c0-30.871-12.018-59.885-33.836-81.694L435.244,271.866z M186.604,467.557C167.617,486.544,142.374,497,115.523,497
	s-52.094-10.456-71.08-29.443C25.456,448.57,15,423.327,15,396.477c0-26.851,10.456-52.094,29.443-71.08L325.397,44.443
	C344.383,25.456,369.626,15,396.477,15c26.85,0,52.094,10.456,71.08,29.443C486.544,63.43,497,88.673,497,115.523
	c0,26.851-10.456,52.094-29.443,71.08L186.604,467.557z"/>
<path d="M172.08,122.54c0.27,0.41,0.59,0.8,0.93,1.14c0.35,0.351,0.73,0.66,1.14,0.93c0.41,0.271,0.841,0.5,1.29,0.69
	c0.46,0.19,0.931,0.33,1.41,0.43c0.48,0.101,0.97,0.15,1.46,0.15s0.98-0.05,1.471-0.15c0.479-0.1,0.949-0.239,1.399-0.43
	s0.89-0.42,1.3-0.69c0.41-0.27,0.79-0.579,1.141-0.93c0.34-0.34,0.66-0.729,0.93-1.14c0.27-0.4,0.5-0.84,0.69-1.29
	c0.189-0.46,0.329-0.931,0.43-1.41c0.09-0.48,0.14-0.97,0.14-1.46s-0.05-0.98-0.14-1.47c-0.101-0.48-0.24-0.95-0.43-1.4
	c-0.19-0.45-0.421-0.89-0.69-1.3c-0.27-0.41-0.59-0.79-0.93-1.141c-0.351-0.34-0.73-0.659-1.141-0.93c-0.41-0.27-0.85-0.5-1.3-0.689
	c-0.45-0.19-0.92-0.33-1.399-0.431c-0.971-0.189-1.971-0.189-2.931,0c-0.479,0.101-0.95,0.24-1.41,0.431
	c-0.449,0.189-0.88,0.42-1.29,0.689c-0.409,0.271-0.79,0.59-1.14,0.93c-0.35,0.351-0.66,0.73-0.93,1.141
	c-0.27,0.41-0.5,0.85-0.69,1.3c-0.189,0.45-0.33,0.92-0.43,1.4c-0.101,0.489-0.15,0.979-0.15,1.47c0,0.49,0.05,0.979,0.15,1.46
	c0.1,0.479,0.24,0.95,0.43,1.41C171.58,121.7,171.81,122.14,172.08,122.54z"/>
<path d="M144.18,142.109c-0.41,0.27-0.79,0.591-1.14,0.931c-1.391,1.4-2.19,3.33-2.19,5.31c0,0.48,0.05,0.98,0.141,1.46
	c0.1,0.48,0.239,0.95,0.43,1.4c0.189,0.46,0.42,0.89,0.689,1.3c0.27,0.41,0.58,0.79,0.931,1.14c0.35,0.341,0.73,0.66,1.14,0.931
	c0.41,0.27,0.84,0.5,1.3,0.689c0.45,0.191,0.92,0.33,1.4,0.431c0.48,0.1,0.98,0.149,1.47,0.149c0.48,0,0.98-0.05,1.46-0.149
	c0.48-0.101,0.95-0.24,1.4-0.431c0.46-0.189,0.89-0.42,1.3-0.689c0.41-0.27,0.79-0.59,1.14-0.931c0.341-0.35,0.66-0.729,0.931-1.14
	c0.27-0.41,0.5-0.84,0.689-1.3c0.191-0.45,0.33-0.92,0.431-1.4c0.1-0.48,0.149-0.98,0.149-1.46c0-1.979-0.8-3.91-2.2-5.31
	c-0.35-0.34-0.729-0.66-1.14-0.931c-0.41-0.27-0.84-0.5-1.3-0.689c-0.45-0.19-0.92-0.33-1.4-0.43c-0.97-0.19-1.96-0.19-2.93,0
	c-0.48,0.1-0.95,0.239-1.4,0.43C145.02,141.609,144.59,141.84,144.18,142.109z"/>
<path d="M116.91,170.96c-0.48,0.1-0.95,0.24-1.4,0.43c-0.45,0.18-0.89,0.42-1.3,0.69s-0.79,0.58-1.141,0.93
	c-0.34,0.35-0.659,0.73-0.93,1.14c-0.27,0.41-0.5,0.841-0.689,1.29c-0.181,0.46-0.33,0.931-0.431,1.41
	c-0.09,0.48-0.14,0.97-0.14,1.46s0.05,0.98,0.14,1.471c0.101,0.479,0.25,0.949,0.431,1.399c0.189,0.45,0.42,0.89,0.689,1.3
	c0.271,0.41,0.59,0.79,0.93,1.141c0.351,0.34,0.73,0.66,1.141,0.93c0.41,0.27,0.85,0.5,1.3,0.69c0.45,0.189,0.92,0.329,1.4,0.43
	c0.489,0.09,0.979,0.14,1.47,0.14c0.49,0,0.979-0.05,1.46-0.14c0.479-0.101,0.95-0.24,1.41-0.43c0.45-0.19,0.89-0.421,1.29-0.69
	c0.41-0.27,0.8-0.59,1.14-0.93c0.351-0.351,0.66-0.73,0.93-1.141c0.271-0.41,0.5-0.85,0.69-1.3s0.33-0.92,0.43-1.399
	c0.101-0.49,0.15-0.98,0.15-1.471c0-0.49-0.05-0.98-0.15-1.46c-0.1-0.479-0.239-0.95-0.43-1.41c-0.19-0.449-0.42-0.88-0.69-1.29
	c-0.27-0.409-0.579-0.79-0.93-1.14C121.939,171.27,119.35,170.47,116.91,170.96z"/>
<path d="M143.189,102.83c-0.4-0.271-0.84-0.5-1.29-0.69c-0.449-0.189-0.92-0.33-1.399-0.43c-0.97-0.19-1.97-0.19-2.94,0
	c-0.47,0.1-0.95,0.24-1.399,0.43c-0.45,0.19-0.891,0.42-1.29,0.69c-0.41,0.27-0.801,0.59-1.141,0.93c-0.35,0.35-0.66,0.73-0.94,1.14
	c-0.27,0.41-0.5,0.841-0.681,1.301c-0.189,0.449-0.34,0.92-0.43,1.399c-0.1,0.48-0.149,0.98-0.149,1.47
	c0,0.48,0.05,0.98,0.149,1.461c0.09,0.48,0.24,0.949,0.43,1.399c0.181,0.46,0.41,0.89,0.681,1.3c0.279,0.41,0.59,0.79,0.94,1.141
	c1.391,1.39,3.33,2.189,5.301,2.189c0.489,0,0.979-0.04,1.47-0.14c0.48-0.101,0.95-0.24,1.399-0.43c0.45-0.19,0.891-0.421,1.29-0.69
	c0.42-0.27,0.801-0.59,1.141-0.93c0.35-0.351,0.66-0.73,0.939-1.141c0.27-0.41,0.5-0.84,0.691-1.3c0.18-0.45,0.33-0.92,0.42-1.399
	c0.1-0.48,0.15-0.98,0.15-1.461c0-1.979-0.801-3.909-2.2-5.309C143.99,103.42,143.609,103.1,143.189,102.83z"/>
<path d="M115.99,136.16c-0.19-0.45-0.421-0.891-0.69-1.29c-0.27-0.41-0.59-0.801-0.93-1.141c-0.351-0.35-0.73-0.66-1.141-0.93
	c-0.41-0.28-0.84-0.51-1.3-0.69c-0.45-0.189-0.92-0.34-1.399-0.43c-0.971-0.2-1.961-0.2-2.931,0c-0.479,0.09-0.95,0.24-1.41,0.43
	c-0.449,0.181-0.88,0.41-1.29,0.69c-0.409,0.27-0.79,0.58-1.14,0.93c-0.35,0.34-0.66,0.73-0.93,1.141
	c-0.271,0.399-0.5,0.84-0.69,1.29c-0.189,0.449-0.33,0.93-0.43,1.399c-0.101,0.49-0.15,0.98-0.15,1.471
	c0,0.489,0.05,0.979,0.15,1.47c0.1,0.47,0.24,0.95,0.43,1.399c0.19,0.45,0.42,0.891,0.69,1.29c0.27,0.42,0.58,0.801,0.93,1.141
	c0.35,0.35,0.73,0.66,1.14,0.939c0.41,0.27,0.841,0.5,1.29,0.691c0.46,0.18,0.931,0.33,1.41,0.42c0.48,0.1,0.98,0.15,1.46,0.15
	c0.49,0,0.99-0.051,1.471-0.15c0.48-0.09,0.949-0.24,1.399-0.42c0.46-0.191,0.89-0.42,1.3-0.691c0.41-0.279,0.79-0.59,1.141-0.939
	c0.34-0.34,0.66-0.721,0.93-1.141c0.27-0.4,0.5-0.84,0.69-1.29c0.19-0.449,0.329-0.93,0.43-1.399c0.1-0.49,0.149-0.98,0.149-1.47
	s-0.05-0.98-0.149-1.471C116.319,137.09,116.18,136.609,115.99,136.16z"/>
<path d="M136.64,66.91c-0.189-0.45-0.42-0.891-0.689-1.29c-0.27-0.41-0.58-0.801-0.931-1.141c-1.739-1.739-4.34-2.54-6.77-2.05
	c-0.48,0.09-0.95,0.24-1.4,0.43c-0.45,0.181-0.89,0.421-1.3,0.69c-0.41,0.27-0.79,0.58-1.14,0.93c-0.341,0.34-0.66,0.73-0.931,1.141
	c-0.27,0.399-0.5,0.84-0.689,1.29c-0.19,0.46-0.33,0.93-0.431,1.409c-0.09,0.48-0.14,0.971-0.14,1.461c0,0.489,0.05,0.98,0.14,1.47
	c0.101,0.479,0.24,0.95,0.431,1.399c0.189,0.45,0.42,0.891,0.689,1.29c0.271,0.42,0.59,0.801,0.931,1.15
	c0.35,0.34,0.729,0.66,1.14,0.93c0.41,0.271,0.85,0.5,1.3,0.69c0.45,0.189,0.92,0.33,1.4,0.42c0.48,0.1,0.98,0.15,1.47,0.15
	c0.48,0,0.98-0.051,1.46-0.15c0.48-0.09,0.95-0.23,1.41-0.42c0.45-0.19,0.88-0.42,1.29-0.69c0.41-0.27,0.79-0.59,1.14-0.93
	c0.351-0.35,0.66-0.73,0.931-1.15c0.27-0.399,0.5-0.84,0.689-1.29c0.19-0.449,0.33-0.92,0.43-1.399c0.101-0.49,0.15-0.98,0.15-1.47
	s-0.05-0.98-0.15-1.461C136.97,67.84,136.83,67.37,136.64,66.91z"/>
<path d="M106.68,96.88c-0.19-0.45-0.42-0.89-0.69-1.29c-0.28-0.41-0.591-0.8-0.94-1.14c-0.34-0.351-0.73-0.66-1.14-0.94
	c-0.4-0.27-0.841-0.5-1.29-0.691c-0.45-0.18-0.931-0.329-1.41-0.42c-0.96-0.199-1.96-0.199-2.93,0c-0.471,0.091-0.95,0.24-1.4,0.42
	c-0.45,0.191-0.89,0.421-1.29,0.691c-0.41,0.28-0.8,0.59-1.14,0.94c-0.351,0.34-0.66,0.729-0.94,1.14c-0.27,0.4-0.5,0.84-0.691,1.29
	c-0.18,0.45-0.329,0.93-0.42,1.4c-0.1,0.489-0.149,0.98-0.149,1.47s0.05,0.979,0.149,1.47c0.091,0.47,0.24,0.95,0.42,1.4
	c0.191,0.449,0.421,0.89,0.691,1.29c0.28,0.409,0.59,0.8,0.94,1.14c0.34,0.35,0.729,0.66,1.14,0.94c0.4,0.27,0.84,0.5,1.29,0.69
	c0.45,0.18,0.93,0.33,1.4,0.42c0.489,0.101,0.98,0.15,1.47,0.15s0.979-0.05,1.46-0.15c0.479-0.09,0.96-0.24,1.41-0.42
	c0.449-0.19,0.89-0.42,1.29-0.69c0.409-0.28,0.8-0.591,1.14-0.94c0.35-0.34,0.66-0.73,0.94-1.14c0.27-0.4,0.5-0.841,0.69-1.29
	c0.18-0.45,0.33-0.931,0.42-1.4c0.101-0.49,0.15-0.98,0.15-1.47s-0.05-0.98-0.15-1.47C107.01,97.81,106.859,97.33,106.68,96.88z"/>
<path d="M76.02,125.55c-0.279-0.41-0.59-0.79-0.939-1.14c-0.34-0.341-0.721-0.66-1.141-0.931c-0.399-0.27-0.84-0.5-1.29-0.689
	c-0.449-0.19-0.92-0.33-1.399-0.431c-0.97-0.189-1.97-0.189-2.931,0c-0.479,0.101-0.949,0.24-1.409,0.431
	c-0.45,0.189-0.891,0.42-1.29,0.689c-0.41,0.271-0.801,0.59-1.141,0.931c-0.35,0.35-0.66,0.729-0.93,1.14
	c-0.27,0.41-0.51,0.85-0.69,1.3c-0.19,0.45-0.34,0.92-0.43,1.4c-0.1,0.48-0.149,0.98-0.149,1.47c0,0.48,0.05,0.98,0.149,1.46
	c0.09,0.48,0.24,0.95,0.43,1.4c0.181,0.46,0.421,0.89,0.69,1.3c0.27,0.41,0.58,0.79,0.93,1.14c0.34,0.34,0.73,0.66,1.141,0.931
	c0.399,0.27,0.84,0.5,1.29,0.689c0.46,0.19,0.93,0.33,1.409,0.43c0.48,0.101,0.971,0.141,1.461,0.141c0.489,0,0.98-0.04,1.47-0.141
	c0.479-0.1,0.95-0.239,1.399-0.43c0.45-0.189,0.891-0.42,1.29-0.689c0.42-0.27,0.801-0.591,1.141-0.931
	c0.35-0.35,0.66-0.73,0.939-1.14c0.271-0.41,0.5-0.84,0.69-1.3c0.18-0.45,0.33-0.92,0.42-1.4c0.1-0.48,0.15-0.98,0.15-1.46
	c0-0.49-0.051-0.99-0.15-1.47c-0.09-0.48-0.24-0.95-0.42-1.4C76.52,126.399,76.29,125.96,76.02,125.55z"/>
<path d="M439.35,389.21c0.45,0.189,0.92,0.33,1.4,0.43c0.479,0.09,0.979,0.141,1.47,0.141c0.49,0,0.98-0.051,1.46-0.141
	c0.48-0.1,0.95-0.24,1.41-0.43c0.45-0.19,0.89-0.42,1.29-0.69c0.41-0.27,0.8-0.59,1.14-0.93c0.351-0.35,0.66-0.73,0.931-1.14
	c0.27-0.41,0.51-0.851,0.689-1.301c0.191-0.449,0.33-0.92,0.43-1.399c0.101-0.48,0.15-0.98,0.15-1.47c0-0.48-0.05-0.98-0.15-1.461
	c-0.1-0.479-0.239-0.949-0.43-1.409c-0.18-0.45-0.42-0.88-0.689-1.29c-0.271-0.41-0.58-0.79-0.931-1.141
	c-0.34-0.35-0.729-0.66-1.14-0.93c-0.4-0.27-0.84-0.5-1.29-0.69c-0.46-0.19-0.93-0.329-1.41-0.43c-0.97-0.2-1.96-0.189-2.93,0
	c-0.48,0.101-0.95,0.24-1.4,0.43c-0.45,0.19-0.89,0.421-1.3,0.69c-0.41,0.27-0.79,0.58-1.14,0.93
	c-0.341,0.351-0.65,0.73-0.931,1.141c-0.27,0.41-0.5,0.84-0.689,1.29c-0.181,0.46-0.33,0.93-0.42,1.409
	c-0.101,0.48-0.15,0.98-0.15,1.461c0,1.979,0.8,3.909,2.19,5.31c0.35,0.34,0.729,0.66,1.14,0.93
	C438.46,388.79,438.899,389.02,439.35,389.21z"/>
<path d="M405.319,415.12c0.19,0.449,0.421,0.89,0.69,1.29c0.28,0.409,0.59,0.8,0.94,1.14c0.34,0.35,0.72,0.66,1.14,0.94
	c0.4,0.27,0.84,0.5,1.29,0.689c0.45,0.18,0.93,0.33,1.4,0.42c0.489,0.101,0.979,0.15,1.47,0.15s0.979-0.05,1.46-0.15
	c0.48-0.09,0.95-0.24,1.41-0.42c0.449-0.189,0.89-0.42,1.29-0.689c0.409-0.28,0.8-0.591,1.14-0.94c0.35-0.34,0.66-0.73,0.93-1.14
	c0.28-0.4,0.511-0.841,0.7-1.29c0.18-0.45,0.33-0.931,0.42-1.4c0.101-0.49,0.15-0.979,0.15-1.47s-0.05-0.98-0.15-1.47
	c-0.09-0.471-0.24-0.95-0.42-1.4c-0.189-0.45-0.42-0.89-0.7-1.29c-0.27-0.42-0.58-0.8-0.93-1.15c-0.34-0.34-0.73-0.65-1.14-0.93
	c-0.4-0.27-0.841-0.5-1.29-0.69c-0.46-0.18-0.931-0.329-1.41-0.42c-0.96-0.199-1.96-0.199-2.93,0c-0.471,0.091-0.95,0.24-1.4,0.42
	c-0.45,0.19-0.89,0.421-1.29,0.69c-0.42,0.28-0.8,0.59-1.14,0.93c-0.351,0.35-0.66,0.73-0.94,1.15c-0.27,0.4-0.5,0.84-0.69,1.29
	c-0.18,0.45-0.329,0.93-0.42,1.4c-0.1,0.489-0.149,0.979-0.149,1.47s0.05,0.979,0.149,1.47
	C404.99,414.19,405.14,414.67,405.319,415.12z"/>
<path d="M378.12,448.45c0.41,0.27,0.84,0.51,1.29,0.689c0.46,0.191,0.93,0.33,1.409,0.43c0.48,0.101,0.971,0.15,1.461,0.15
	c1.979,0,3.909-0.8,5.31-2.2c1.39-1.399,2.19-3.33,2.19-5.3c0-0.49-0.051-0.979-0.141-1.47c-0.1-0.48-0.24-0.95-0.43-1.4
	c-0.19-0.45-0.42-0.89-0.69-1.3c-0.27-0.41-0.59-0.79-0.93-1.14c-1.75-1.74-4.34-2.54-6.771-2.051
	c-0.479,0.101-0.949,0.24-1.409,0.431c-0.45,0.189-0.88,0.42-1.29,0.689c-0.41,0.271-0.801,0.59-1.141,0.931
	c-0.35,0.35-0.66,0.729-0.93,1.14c-0.27,0.41-0.5,0.85-0.69,1.3c-0.19,0.45-0.329,0.92-0.43,1.4c-0.1,0.49-0.149,0.979-0.149,1.47
	c0,1.97,0.8,3.9,2.199,5.3C377.319,447.87,377.71,448.18,378.12,448.45z"/>
<path d="M398.77,379.2c0.41,0.27,0.84,0.51,1.3,0.689c0.45,0.191,0.921,0.33,1.4,0.43c0.48,0.101,0.98,0.15,1.47,0.15
	c1.971,0,3.9-0.8,5.301-2.2c0.34-0.34,0.659-0.729,0.93-1.14c0.27-0.4,0.5-0.84,0.69-1.29s0.33-0.93,0.431-1.41
	c0.09-0.479,0.14-0.97,0.14-1.46s-0.05-0.979-0.14-1.47c-0.1-0.48-0.24-0.95-0.431-1.4c-0.19-0.45-0.42-0.89-0.69-1.29
	c-0.27-0.42-0.59-0.8-0.93-1.14c-0.351-0.351-0.73-0.66-1.141-0.94c-0.41-0.27-0.84-0.5-1.3-0.689c-0.45-0.181-0.92-0.33-1.4-0.42
	c-0.97-0.2-1.96-0.2-2.93,0c-0.479,0.09-0.95,0.239-1.4,0.42c-0.46,0.189-0.89,0.42-1.3,0.689c-0.41,0.28-0.79,0.59-1.14,0.94
	c-1.39,1.39-2.19,3.32-2.19,5.3c0,1.97,0.801,3.91,2.19,5.3C397.979,378.62,398.359,378.93,398.77,379.2z"/>
<path d="M366.04,405.8c0.189,0.46,0.42,0.89,0.689,1.3c0.28,0.41,0.59,0.79,0.94,1.141c1.39,1.399,3.33,2.199,5.3,2.199
	c0.49,0,0.98-0.05,1.46-0.15c0.48-0.1,0.95-0.24,1.41-0.431c0.45-0.19,0.89-0.42,1.29-0.69c0.41-0.27,0.8-0.59,1.14-0.93
	c1.4-1.4,2.2-3.33,2.2-5.301c0-1.98-0.8-3.909-2.2-5.31c-0.34-0.34-0.729-0.66-1.14-0.93c-0.4-0.271-0.84-0.5-1.29-0.69
	c-0.46-0.19-0.93-0.33-1.41-0.43c-2.439-0.49-5.02,0.309-6.76,2.05c-0.351,0.35-0.66,0.729-0.94,1.14c-0.27,0.41-0.5,0.84-0.689,1.3
	c-0.181,0.45-0.33,0.921-0.42,1.4c-0.101,0.48-0.15,0.98-0.15,1.47c0,0.48,0.05,0.98,0.15,1.46
	C365.71,404.88,365.859,405.35,366.04,405.8z"/>
<path d="M392.16,341.04c0.479,0.1,0.97,0.15,1.46,0.15c0.489,0,0.98-0.05,1.47-0.15c0.479-0.1,0.95-0.24,1.4-0.431
	c0.449-0.19,0.89-0.42,1.3-0.69c0.41-0.27,0.79-0.58,1.14-0.93c1.39-1.4,2.19-3.33,2.19-5.301c0-0.489-0.051-0.989-0.141-1.47
	c-0.1-0.479-0.25-0.95-0.43-1.4c-0.19-0.46-0.42-0.89-0.69-1.3c-0.279-0.41-0.59-0.79-0.93-1.14c-0.35-0.34-0.729-0.66-1.14-0.93
	c-0.41-0.271-0.85-0.5-1.3-0.69c-0.45-0.19-0.921-0.33-1.4-0.43c-0.97-0.191-1.97-0.191-2.93,0c-0.48,0.1-0.95,0.239-1.41,0.43
	c-0.45,0.19-0.891,0.42-1.29,0.69c-0.41,0.27-0.8,0.59-1.141,0.93c-0.35,0.35-0.659,0.729-0.93,1.14c-0.27,0.41-0.51,0.84-0.689,1.3
	c-0.19,0.45-0.341,0.921-0.431,1.4c-0.1,0.48-0.149,0.98-0.149,1.47c0,1.971,0.8,3.9,2.199,5.301c0.341,0.35,0.73,0.659,1.141,0.93
	c0.399,0.27,0.84,0.5,1.29,0.69C391.21,340.8,391.68,340.94,392.16,341.04z"/>
<path d="M369.89,367.819c0.271-0.409,0.5-0.84,0.691-1.3c0.189-0.45,0.33-0.92,0.43-1.399c0.1-0.48,0.14-0.98,0.14-1.471
	c0-0.489-0.04-0.98-0.14-1.46c-0.1-0.48-0.24-0.949-0.43-1.409c-0.191-0.45-0.42-0.881-0.691-1.29c-0.27-0.41-0.59-0.79-0.93-1.141
	c-1.74-1.74-4.34-2.54-6.77-2.05c-0.48,0.1-0.949,0.24-1.409,0.43c-0.45,0.19-0.881,0.42-1.29,0.69
	c-0.41,0.27-0.801,0.59-1.141,0.93c-0.35,0.351-0.66,0.73-0.93,1.141c-0.27,0.409-0.5,0.84-0.69,1.29
	c-0.189,0.46-0.33,0.93-0.43,1.409c-0.1,0.48-0.15,0.98-0.15,1.46c0,0.49,0.051,0.99,0.15,1.471c0.1,0.48,0.24,0.949,0.43,1.399
	c0.19,0.46,0.42,0.891,0.69,1.3c0.27,0.41,0.58,0.79,0.93,1.141c0.351,0.34,0.73,0.66,1.141,0.93c0.409,0.271,0.84,0.5,1.29,0.691
	c0.46,0.189,0.93,0.33,1.409,0.43c0.48,0.09,0.98,0.14,1.46,0.14c1.98,0,3.91-0.8,5.311-2.189
	C369.3,368.609,369.62,368.229,369.89,367.819z"/>
<path d="M339.92,389.46c-0.27-0.41-0.58-0.8-0.93-1.141c-0.351-0.35-0.73-0.659-1.141-0.93c-0.41-0.28-0.84-0.51-1.29-0.689
	c-0.46-0.19-0.93-0.341-1.41-0.431c-2.439-0.489-5.02,0.311-6.77,2.05c-0.34,0.341-0.66,0.73-0.93,1.141
	c-0.271,0.399-0.5,0.84-0.69,1.29c-0.19,0.46-0.33,0.93-0.43,1.41c-0.09,0.479-0.141,0.97-0.141,1.46c0,0.489,0.051,0.98,0.141,1.47
	c0.1,0.479,0.239,0.95,0.43,1.4c0.19,0.449,0.42,0.89,0.69,1.29c0.27,0.42,0.59,0.8,0.93,1.14c0.35,0.35,0.729,0.66,1.14,0.94
	c0.41,0.271,0.84,0.5,1.3,0.69c0.45,0.18,0.921,0.33,1.4,0.42c0.48,0.1,0.98,0.15,1.47,0.15c0.48,0,0.98-0.051,1.46-0.15
	c0.48-0.09,0.95-0.24,1.41-0.42c0.45-0.19,0.88-0.42,1.29-0.69c0.41-0.279,0.79-0.59,1.141-0.94c1.399-1.39,2.199-3.33,2.199-5.3
	c0-0.49-0.05-0.98-0.15-1.46c-0.1-0.48-0.24-0.95-0.431-1.41C340.42,390.3,340.19,389.859,339.92,389.46z"/>
<path d="M281.339,173.966c-4.662-4.661-10.86-7.229-17.453-7.229c-6.593,0-12.791,2.567-17.452,7.229l-12.493,12.493
	c-2.929,2.93-2.929,7.678,0,10.607c2.93,2.928,7.678,2.928,10.607,0l12.493-12.494c1.828-1.828,4.259-2.835,6.845-2.835
	s5.018,1.007,6.846,2.836l56.695,56.695c1.829,1.828,2.836,4.26,2.836,6.846s-1.007,5.017-2.836,6.845l-72.468,72.469
	c-1.828,1.828-4.259,2.835-6.845,2.835s-5.018-1.007-6.846-2.836l-56.695-56.695c-1.829-1.828-2.836-4.26-2.836-6.846
	s1.007-5.017,2.836-6.845l38.873-38.873c2.929-2.93,2.929-7.678,0-10.607c-2.93-2.928-7.678-2.928-10.607,0l-38.872,38.873
	c-4.662,4.661-7.229,10.859-7.229,17.452s2.567,12.791,7.229,17.453l56.695,56.695c4.662,4.661,10.86,7.228,17.453,7.228
	s12.791-2.567,17.452-7.228l72.467-72.468c4.662-4.661,7.229-10.859,7.229-17.452s-2.567-12.791-7.228-17.453L281.339,173.966z"/>
<path d="M326.76,121.25c0.19,0.45,0.42,0.88,0.69,1.29s0.59,0.8,0.93,1.14c0.35,0.351,0.729,0.66,1.14,0.93
	c0.41,0.271,0.84,0.511,1.3,0.69c0.45,0.19,0.921,0.33,1.4,0.43c0.48,0.101,0.98,0.15,1.47,0.15c0.48,0,0.98-0.05,1.46-0.15
	c0.48-0.1,0.95-0.239,1.41-0.43c0.45-0.18,0.88-0.42,1.29-0.69c0.41-0.27,0.79-0.579,1.141-0.93c1.399-1.399,2.199-3.33,2.199-5.3
	c0-0.49-0.05-0.98-0.15-1.47c-0.1-0.48-0.24-0.95-0.431-1.4c-0.19-0.45-0.42-0.89-0.69-1.3s-0.58-0.79-0.93-1.141
	c-0.351-0.34-0.73-0.659-1.141-0.93c-0.41-0.27-0.84-0.5-1.29-0.689c-0.46-0.19-0.93-0.33-1.41-0.431
	c-2.439-0.489-5.02,0.311-6.77,2.05c-0.34,0.351-0.66,0.73-0.93,1.141c-0.271,0.41-0.5,0.85-0.69,1.3c-0.19,0.45-0.33,0.92-0.43,1.4
	c-0.09,0.489-0.141,0.979-0.141,1.47c0,0.49,0.051,0.979,0.141,1.46C326.43,120.319,326.569,120.79,326.76,121.25z"/>
<path d="M370.58,145.48c-0.191-0.46-0.42-0.89-0.691-1.3c-0.27-0.41-0.59-0.79-0.93-1.14c-1.74-1.74-4.34-2.54-6.77-2.05
	c-0.48,0.1-0.949,0.239-1.409,0.43c-0.45,0.189-0.881,0.42-1.29,0.689c-0.41,0.27-0.79,0.58-1.141,0.931
	c-1.399,1.4-2.2,3.33-2.2,5.31c0,0.48,0.051,0.98,0.15,1.46c0.1,0.48,0.24,0.95,0.43,1.41c0.19,0.45,0.42,0.88,0.69,1.29
	c0.27,0.41,0.58,0.79,0.93,1.14c0.351,0.341,0.73,0.66,1.141,0.931c0.409,0.27,0.84,0.5,1.29,0.689
	c0.46,0.191,0.93,0.33,1.409,0.431c0.48,0.1,0.98,0.149,1.46,0.149c1.98,0,3.91-0.8,5.311-2.2c0.34-0.35,0.66-0.729,0.93-1.14
	c0.271-0.41,0.5-0.84,0.691-1.29c0.189-0.46,0.33-0.93,0.43-1.41c0.1-0.48,0.14-0.97,0.14-1.46s-0.04-0.99-0.14-1.47
	C370.91,146.399,370.77,145.93,370.58,145.48z"/>
<path d="M400.55,175.439c-0.19-0.449-0.42-0.88-0.69-1.29c-0.27-0.409-0.59-0.79-0.93-1.14c-0.35-0.35-0.729-0.66-1.14-0.93
	c-0.41-0.27-0.85-0.511-1.3-0.69c-0.45-0.189-0.921-0.33-1.4-0.43c-0.97-0.191-1.97-0.191-2.93,0c-0.48,0.1-0.95,0.24-1.41,0.43
	c-0.45,0.18-0.891,0.42-1.29,0.69c-0.41,0.27-0.8,0.58-1.141,0.93c-0.35,0.35-0.659,0.73-0.93,1.14
	c-0.27,0.41-0.51,0.841-0.689,1.29c-0.19,0.46-0.341,0.931-0.431,1.41c-0.1,0.48-0.149,0.98-0.149,1.46
	c0,0.49,0.05,0.99,0.149,1.471c0.09,0.479,0.24,0.949,0.431,1.399c0.18,0.45,0.42,0.89,0.689,1.3c0.271,0.41,0.58,0.79,0.93,1.141
	c0.341,0.34,0.73,0.66,1.141,0.93c0.399,0.27,0.84,0.5,1.29,0.69c0.46,0.189,0.93,0.329,1.41,0.43c0.479,0.09,0.97,0.14,1.46,0.14
	c0.489,0,0.98-0.05,1.47-0.14c0.479-0.101,0.95-0.24,1.4-0.43c0.449-0.19,0.89-0.421,1.3-0.69c0.41-0.28,0.79-0.59,1.14-0.93
	c0.34-0.351,0.66-0.73,0.93-1.141c0.271-0.41,0.5-0.85,0.69-1.3c0.18-0.45,0.33-0.92,0.43-1.399c0.09-0.48,0.141-0.98,0.141-1.471
	c0-0.48-0.051-0.98-0.141-1.46C400.88,176.37,400.729,175.899,400.55,175.439z"/>
<path d="M377.13,102.83c-0.4-0.271-0.84-0.5-1.29-0.69c-0.45-0.189-0.93-0.33-1.41-0.43c-0.96-0.19-1.96-0.19-2.93,0
	c-0.48,0.1-0.95,0.24-1.4,0.43c-0.45,0.19-0.89,0.42-1.29,0.69c-0.42,0.27-0.8,0.59-1.14,0.93c-0.351,0.35-0.66,0.73-0.94,1.14
	c-0.27,0.41-0.5,0.841-0.689,1.301c-0.181,0.449-0.33,0.92-0.42,1.399c-0.101,0.48-0.15,0.98-0.15,1.46c0,0.49,0.05,0.99,0.15,1.471
	c0.09,0.48,0.239,0.949,0.42,1.399c0.189,0.46,0.42,0.89,0.689,1.3c0.28,0.41,0.59,0.79,0.94,1.141c1.39,1.39,3.32,2.199,5.3,2.199
	c0.49,0,0.98-0.05,1.46-0.149c0.48-0.101,0.95-0.24,1.41-0.43c0.45-0.19,0.89-0.421,1.29-0.69c0.41-0.27,0.8-0.59,1.14-0.93
	c0.351-0.351,0.66-0.73,0.94-1.141c0.27-0.41,0.5-0.84,0.689-1.3c0.181-0.45,0.33-0.92,0.42-1.399c0.101-0.48,0.15-0.98,0.15-1.471
	c0-1.97-0.8-3.899-2.2-5.3C377.93,103.42,377.54,103.1,377.13,102.83z"/>
<path d="M409.859,136.16c-0.19-0.45-0.42-0.891-0.69-1.29c-0.27-0.41-0.59-0.801-0.93-1.141c-0.351-0.35-0.73-0.66-1.141-0.94
	c-0.41-0.27-0.84-0.5-1.3-0.681c-0.45-0.189-0.92-0.34-1.4-0.43c-0.97-0.2-1.96-0.2-2.93,0c-0.479,0.09-0.95,0.24-1.4,0.43
	c-0.46,0.181-0.89,0.41-1.3,0.681c-0.41,0.279-0.79,0.59-1.14,0.94c-0.34,0.34-0.66,0.73-0.93,1.141
	c-0.271,0.399-0.5,0.84-0.69,1.29c-0.19,0.449-0.33,0.93-0.43,1.399c-0.101,0.49-0.141,0.98-0.141,1.471
	c0,1.979,0.801,3.909,2.19,5.3c0.35,0.35,0.729,0.66,1.14,0.939c0.41,0.27,0.84,0.5,1.3,0.691c0.45,0.18,0.921,0.33,1.4,0.42
	c0.48,0.1,0.98,0.15,1.47,0.15c0.48,0,0.98-0.051,1.46-0.15c0.48-0.09,0.95-0.24,1.4-0.42c0.46-0.191,0.89-0.42,1.3-0.691
	c0.41-0.279,0.79-0.59,1.141-0.939c0.34-0.34,0.659-0.721,0.93-1.141c0.27-0.4,0.5-0.84,0.69-1.29c0.19-0.449,0.33-0.92,0.431-1.399
	c0.09-0.49,0.14-0.98,0.14-1.47s-0.05-0.98-0.14-1.471C410.19,137.09,410.05,136.609,409.859,136.16z"/>
<path d="M389.78,69.78c0-1.971-0.801-3.9-2.19-5.301c-0.35-0.35-0.73-0.66-1.14-0.93c-0.41-0.28-0.841-0.51-1.301-0.69
	c-0.449-0.19-0.92-0.34-1.399-0.43c-0.97-0.2-1.97-0.2-2.931,0c-0.479,0.09-0.949,0.24-1.409,0.43c-0.45,0.181-0.88,0.41-1.29,0.69
	c-0.41,0.27-0.801,0.58-1.141,0.93c-1.399,1.4-2.199,3.33-2.199,5.301c0,1.98,0.8,3.909,2.199,5.3c0.34,0.35,0.73,0.66,1.141,0.939
	c0.41,0.271,0.84,0.5,1.29,0.69c0.46,0.189,0.93,0.33,1.409,0.43c0.48,0.09,0.971,0.141,1.461,0.141c1.979,0,3.909-0.801,5.31-2.2
	C388.979,73.689,389.78,71.76,389.78,69.78z"/>
<path d="M419.18,96.88c-0.189-0.45-0.42-0.89-0.7-1.29c-0.27-0.41-0.58-0.8-0.93-1.14c-1.74-1.75-4.33-2.551-6.77-2.051
	c-0.471,0.091-0.95,0.24-1.4,0.42c-0.45,0.191-0.89,0.421-1.29,0.691c-0.42,0.28-0.8,0.59-1.14,0.94
	c-0.351,0.34-0.66,0.729-0.94,1.14c-0.27,0.4-0.5,0.84-0.69,1.29c-0.18,0.45-0.329,0.93-0.42,1.4c-0.1,0.489-0.149,0.98-0.149,1.47
	s0.05,0.979,0.149,1.47c0.091,0.47,0.24,0.95,0.42,1.4c0.19,0.449,0.421,0.89,0.69,1.29c0.28,0.409,0.59,0.8,0.94,1.14
	c0.34,0.35,0.72,0.66,1.14,0.94c0.4,0.27,0.84,0.5,1.29,0.69c0.45,0.18,0.93,0.33,1.4,0.42c0.489,0.101,0.979,0.15,1.47,0.15
	c1.979,0,3.91-0.8,5.3-2.2c0.35-0.34,0.66-0.73,0.93-1.14c0.28-0.4,0.511-0.841,0.7-1.29c0.18-0.45,0.33-0.931,0.42-1.4
	c0.101-0.49,0.15-0.98,0.15-1.47s-0.05-0.98-0.15-1.47C419.51,97.81,419.359,97.33,419.18,96.88z"/>
<path d="M449.14,126.85c-0.18-0.45-0.42-0.89-0.689-1.3c-0.271-0.41-0.58-0.79-0.931-1.14c-0.34-0.341-0.729-0.66-1.14-0.931
	c-0.4-0.27-0.84-0.5-1.29-0.689c-0.46-0.19-0.93-0.33-1.41-0.431c-0.97-0.189-1.96-0.189-2.93,0c-0.48,0.101-0.95,0.24-1.4,0.431
	c-0.45,0.189-0.89,0.42-1.3,0.689c-0.41,0.271-0.79,0.59-1.14,0.931c-0.341,0.35-0.65,0.729-0.931,1.14
	c-0.27,0.41-0.5,0.85-0.689,1.3c-0.181,0.45-0.33,0.92-0.42,1.4c-0.101,0.48-0.15,0.98-0.15,1.47c0,1.97,0.8,3.91,2.19,5.3
	c0.35,0.351,0.729,0.66,1.14,0.931c0.41,0.27,0.85,0.5,1.3,0.689c0.45,0.19,0.92,0.33,1.4,0.43c0.479,0.101,0.979,0.15,1.47,0.15
	c0.49,0,0.98-0.05,1.46-0.15c0.48-0.1,0.95-0.239,1.41-0.43c0.45-0.189,0.89-0.42,1.29-0.689c0.41-0.27,0.8-0.58,1.14-0.931
	c0.351-0.35,0.66-0.73,0.931-1.14c0.27-0.41,0.51-0.84,0.689-1.29c0.191-0.46,0.33-0.93,0.43-1.41c0.101-0.48,0.15-0.97,0.15-1.46
	s-0.05-0.99-0.15-1.47C449.47,127.77,449.33,127.3,449.14,126.85z"/>
<path d="M76.71,379.41c-0.19-0.45-0.42-0.88-0.69-1.29c-0.279-0.41-0.59-0.79-0.93-1.141c-1.75-1.739-4.34-2.54-6.771-2.05
	c-0.479,0.101-0.949,0.24-1.409,0.43c-0.45,0.181-0.891,0.421-1.29,0.69c-0.41,0.27-0.801,0.58-1.141,0.93
	c-0.35,0.351-0.66,0.73-0.93,1.141c-0.28,0.41-0.51,0.84-0.69,1.29c-0.19,0.46-0.34,0.93-0.43,1.409
	c-0.1,0.48-0.149,0.971-0.149,1.461c0,0.489,0.05,0.989,0.149,1.47c0.09,0.479,0.24,0.95,0.43,1.399
	c0.181,0.45,0.41,0.891,0.69,1.301c0.27,0.409,0.58,0.79,0.93,1.14c1.391,1.39,3.33,2.19,5.301,2.19c1.98,0,3.909-0.801,5.31-2.19
	c0.34-0.35,0.65-0.73,0.93-1.14c0.271-0.41,0.5-0.851,0.69-1.301c0.189-0.449,0.33-0.92,0.42-1.399c0.1-0.48,0.15-0.98,0.15-1.47
	s-0.051-0.98-0.15-1.461C77.04,380.34,76.899,379.87,76.71,379.41z"/>
<path d="M106.68,409.38c-0.19-0.45-0.42-0.89-0.69-1.29c-0.28-0.41-0.591-0.8-0.94-1.14c-0.34-0.351-0.73-0.66-1.14-0.94
	c-0.4-0.27-0.841-0.5-1.29-0.69c-0.45-0.18-0.931-0.329-1.4-0.42c-0.97-0.199-1.97-0.199-2.939,0c-0.471,0.091-0.95,0.24-1.4,0.42
	c-0.45,0.19-0.89,0.421-1.29,0.69c-0.41,0.28-0.8,0.59-1.14,0.94c-0.351,0.34-0.66,0.729-0.94,1.14c-0.27,0.4-0.5,0.84-0.691,1.29
	c-0.18,0.45-0.329,0.93-0.42,1.4c-0.1,0.489-0.149,0.979-0.149,1.47c0,1.979,0.8,3.91,2.2,5.3c0.34,0.35,0.729,0.66,1.14,0.93
	c0.4,0.28,0.84,0.511,1.29,0.7c0.45,0.18,0.93,0.33,1.4,0.42c0.489,0.101,0.98,0.15,1.47,0.15c1.97,0,3.91-0.8,5.3-2.2
	c1.4-1.39,2.2-3.32,2.2-5.3c0-0.49-0.05-0.98-0.15-1.47C107.01,410.31,106.859,409.83,106.68,409.38z"/>
<path d="M136.64,439.35c-0.189-0.45-0.42-0.89-0.689-1.3c-0.27-0.41-0.58-0.79-0.931-1.14c-0.35-0.341-0.73-0.66-1.14-0.931
	c-0.41-0.27-0.84-0.5-1.29-0.689c-0.46-0.19-0.93-0.33-1.41-0.431c-2.439-0.489-5.03,0.31-6.77,2.051
	c-0.341,0.35-0.66,0.729-0.931,1.14c-0.27,0.41-0.5,0.85-0.689,1.3c-0.19,0.45-0.33,0.92-0.431,1.4c-0.09,0.49-0.14,0.979-0.14,1.47
	c0,1.97,0.8,3.91,2.19,5.3c1.399,1.4,3.33,2.2,5.309,2.2c0.49,0,0.98-0.05,1.46-0.15c0.48-0.09,0.95-0.239,1.41-0.43
	c0.45-0.18,0.88-0.41,1.29-0.689c0.41-0.271,0.79-0.58,1.14-0.931c1.4-1.39,2.2-3.33,2.2-5.3c0-0.49-0.05-0.979-0.15-1.47
	C136.97,440.27,136.83,439.8,136.64,439.35z"/>
<path d="M115.99,370.1c-0.19-0.45-0.421-0.89-0.69-1.29c-0.27-0.42-0.59-0.8-0.93-1.149c-0.351-0.341-0.73-0.65-1.141-0.931
	c-0.41-0.27-0.84-0.5-1.3-0.689c-0.45-0.181-0.92-0.33-1.399-0.431c-0.971-0.19-1.971-0.19-2.931,0
	c-0.479,0.101-0.95,0.25-1.41,0.431c-0.449,0.189-0.88,0.42-1.29,0.689c-0.409,0.28-0.79,0.59-1.14,0.931
	c-0.35,0.35-0.66,0.729-0.93,1.149c-0.271,0.4-0.5,0.84-0.69,1.29c-0.189,0.45-0.33,0.92-0.43,1.4c-0.101,0.49-0.15,0.979-0.15,1.47
	c0,0.49,0.05,0.98,0.15,1.47c0.1,0.471,0.24,0.94,0.43,1.4c0.19,0.45,0.42,0.89,0.69,1.29c0.27,0.41,0.58,0.8,0.93,1.14
	c0.35,0.351,0.73,0.66,1.14,0.931c0.41,0.27,0.841,0.51,1.29,0.689c0.46,0.191,0.931,0.33,1.41,0.43c0.48,0.101,0.98,0.15,1.46,0.15
	c0.49,0,0.99-0.05,1.471-0.15c0.48-0.1,0.949-0.239,1.399-0.43c0.46-0.18,0.89-0.42,1.3-0.689c0.41-0.271,0.79-0.58,1.141-0.931
	c0.34-0.34,0.66-0.729,0.93-1.14c0.27-0.4,0.5-0.84,0.69-1.29c0.19-0.46,0.329-0.93,0.43-1.4c0.1-0.489,0.149-0.98,0.149-1.47
	s-0.05-0.979-0.149-1.47C116.319,371.02,116.18,370.55,115.99,370.1z"/>
<path d="M143.189,396.7c-0.4-0.271-0.84-0.5-1.29-0.69c-0.449-0.19-0.92-0.33-1.399-0.43c-0.97-0.191-1.97-0.191-2.94,0
	c-0.47,0.1-0.95,0.239-1.399,0.43c-0.45,0.19-0.891,0.42-1.29,0.69c-0.41,0.27-0.801,0.59-1.141,0.93
	c-0.35,0.35-0.66,0.729-0.94,1.14c-0.27,0.41-0.5,0.84-0.681,1.3c-0.189,0.45-0.34,0.921-0.43,1.4c-0.1,0.48-0.149,0.98-0.149,1.47
	c0,0.48,0.05,0.98,0.149,1.46c0.09,0.48,0.24,0.95,0.43,1.4c0.181,0.46,0.41,0.89,0.681,1.3c0.279,0.41,0.59,0.79,0.94,1.141
	c1.391,1.399,3.33,2.199,5.301,2.199c0.489,0,0.979-0.05,1.47-0.15c0.48-0.1,0.95-0.24,1.399-0.431c0.45-0.19,0.891-0.42,1.29-0.69
	c0.42-0.27,0.801-0.59,1.141-0.93c0.35-0.351,0.66-0.73,0.939-1.141c0.27-0.41,0.5-0.84,0.691-1.3c0.18-0.45,0.33-0.92,0.42-1.4
	c0.1-0.48,0.15-0.98,0.15-1.46c0-1.98-0.801-3.909-2.2-5.31C143.99,397.29,143.609,396.97,143.189,396.7z"/>
<path d="M123.68,338.99c0.351-0.351,0.66-0.73,0.93-1.141c0.271-0.41,0.5-0.84,0.69-1.29c0.19-0.46,0.33-0.93,0.43-1.41
	c0.101-0.48,0.15-0.97,0.15-1.46c0-1.98-0.8-3.909-2.2-5.31c-1.74-1.74-4.33-2.54-6.77-2.05c-0.48,0.1-0.95,0.239-1.4,0.43
	c-0.45,0.19-0.89,0.42-1.3,0.69s-0.79,0.59-1.141,0.93c-1.39,1.4-2.189,3.33-2.189,5.31c0,0.49,0.05,0.98,0.14,1.46
	c0.101,0.48,0.25,0.95,0.431,1.41c0.189,0.45,0.42,0.88,0.689,1.29c0.271,0.41,0.59,0.79,0.93,1.141
	c0.351,0.35,0.73,0.659,1.141,0.93c0.41,0.27,0.85,0.5,1.3,0.69c0.45,0.19,0.92,0.33,1.4,0.431c0.489,0.1,0.979,0.15,1.47,0.15
	c0.49,0,0.979-0.05,1.46-0.15c0.479-0.1,0.95-0.24,1.41-0.431c0.45-0.19,0.89-0.42,1.29-0.69
	C122.95,339.649,123.34,339.34,123.68,338.99z"/>
<path d="M155.27,360.78c-0.189-0.45-0.42-0.881-0.689-1.29c-0.27-0.41-0.59-0.79-0.931-1.141c-1.75-1.74-4.34-2.54-6.77-2.05
	c-0.48,0.1-0.95,0.24-1.4,0.43c-0.46,0.19-0.89,0.42-1.3,0.69s-0.79,0.58-1.14,0.93c-0.35,0.351-0.66,0.73-0.931,1.141
	c-0.27,0.409-0.5,0.84-0.689,1.29c-0.19,0.46-0.33,0.93-0.43,1.409c-0.091,0.48-0.141,0.98-0.141,1.46c0,1.98,0.8,3.91,2.19,5.311
	c0.35,0.34,0.73,0.66,1.14,0.93c0.41,0.271,0.84,0.5,1.3,0.691c0.45,0.189,0.92,0.33,1.4,0.43s0.98,0.14,1.47,0.14
	c0.48,0,0.98-0.04,1.46-0.14c0.48-0.1,0.95-0.24,1.4-0.43c0.46-0.191,0.89-0.42,1.3-0.691c0.41-0.27,0.79-0.59,1.14-0.93
	c1.4-1.4,2.2-3.33,2.2-5.311c0-0.48-0.05-0.98-0.149-1.46C155.6,361.71,155.46,361.24,155.27,360.78z"/>
<path d="M185.24,390.75c-0.19-0.45-0.421-0.891-0.69-1.29c-0.27-0.41-0.59-0.8-0.93-1.141c-0.351-0.35-0.73-0.659-1.141-0.93
	c-0.41-0.27-0.85-0.51-1.3-0.689c-0.45-0.19-0.92-0.341-1.399-0.431c-0.971-0.2-1.971-0.2-2.931,0c-0.479,0.09-0.95,0.24-1.41,0.431
	c-0.449,0.18-0.88,0.42-1.29,0.689c-0.409,0.271-0.79,0.58-1.14,0.93c-0.34,0.341-0.66,0.73-0.93,1.141
	c-0.27,0.399-0.5,0.84-0.69,1.29c-0.189,0.45-0.33,0.93-0.43,1.41c-0.101,0.479-0.15,0.97-0.15,1.46c0,0.489,0.05,0.98,0.15,1.47
	c0.1,0.479,0.24,0.95,0.43,1.4c0.19,0.449,0.42,0.89,0.69,1.3c0.27,0.41,0.59,0.79,0.93,1.14c0.35,0.34,0.73,0.66,1.14,0.93
	c0.41,0.271,0.841,0.5,1.29,0.69c0.46,0.19,0.931,0.33,1.41,0.43c0.48,0.09,0.97,0.141,1.46,0.141s0.98-0.051,1.471-0.141
	c0.479-0.1,0.949-0.239,1.399-0.43s0.89-0.42,1.3-0.69s0.79-0.59,1.141-0.93c0.34-0.35,0.66-0.729,0.93-1.14
	c0.27-0.41,0.5-0.85,0.69-1.3c0.189-0.45,0.329-0.921,0.43-1.4c0.09-0.49,0.14-0.98,0.14-1.47s-0.05-0.98-0.14-1.46
	C185.569,391.68,185.43,391.2,185.24,390.75z"/>
<g>
</g>
<g>
</g>
<g>
</g>
<g>
</g>
<g>
</g>
<g>
</g>
<g>
</g>
<g>
</g>
<g>
</g>
<g>
</g>
<g>
</g>
<g>
</g>
<g>
</g>
<g>
</g>
<g>
</g>
</svg>
